<svg width="52" height="52" viewBox="0 0 52 52" fill="none" xmlns="http://www.w3.org/2000/svg">
<circle cx="28.1667" cy="25.9998" r="20.5833" fill="#0060AF" fill-opacity="0.1"/>
<path d="M11.4942 7.70253C10.9525 7.4317 10.3025 7.64837 10.0425 8.19003C9.89084 8.48253 8.65584 11.1042 10.2483 12.6859C10.6167 13.0542 10.2917 14.1917 10.0425 14.69C9.77168 15.2209 9.98834 15.8709 10.53 16.1417C10.6817 16.2175 10.855 16.2609 11.0175 16.2609C11.4183 16.2609 11.7975 16.0442 11.9925 15.665C12.1442 15.3725 13.3792 12.7509 11.7867 11.1692C11.4183 10.8009 11.7433 9.66337 11.9925 9.16503C12.2525 8.61253 12.0358 7.96253 11.4942 7.70253ZM21.9592 16.1309C22.1108 16.2067 22.2842 16.25 22.4467 16.25C22.8475 16.25 23.2267 16.0334 23.4217 15.6542C23.5733 15.3617 24.8083 12.74 23.2158 11.1584C22.8475 10.79 23.1725 9.65253 23.4217 9.1542C23.6817 8.62337 23.465 7.97337 22.9342 7.70253C22.3925 7.4317 21.7533 7.64837 21.4825 8.19003C21.3308 8.48253 20.0958 11.1042 21.6883 12.6859C22.0567 13.0542 21.7317 14.1917 21.4825 14.69C21.2117 15.2209 21.4283 15.8709 21.9592 16.1309ZM33.1608 16.1309C33.3125 16.2067 33.4858 16.25 33.6483 16.25C34.0492 16.25 34.4283 16.0334 34.6233 15.6542C34.7642 15.3617 36.01 12.74 34.4175 11.1584C34.0492 10.79 34.3742 9.65253 34.6233 9.1542C34.8833 8.61253 34.6667 7.96253 34.125 7.70253C33.5942 7.4317 32.9442 7.64837 32.6733 8.19003C32.5325 8.48253 31.2867 11.1042 32.8792 12.6859C33.2475 13.0542 32.9225 14.1917 32.6733 14.69C32.4025 15.2209 32.6192 15.8709 33.1608 16.1309ZM5.95834 20.5834V31.4167C5.95834 36.4325 8.22251 41.0909 12.1658 44.1892C12.2092 44.2217 12.2742 44.2434 12.3283 44.2759C12.3717 44.2975 12.4042 44.33 12.4475 44.3409C12.5667 44.3842 12.6967 44.4167 12.8375 44.4167H31.5792C31.7092 44.4167 31.8392 44.3842 31.9692 44.3409C32.0125 44.3192 32.0558 44.2975 32.0992 44.2759C32.1533 44.2434 32.2075 44.2325 32.2508 44.1892C32.2833 44.1675 32.3158 44.135 32.3483 44.1025C35.945 41.2317 38.1008 37.0609 38.4042 32.5H40.6358C43.6258 32.5 46.0525 30.0734 46.0525 27.0834C46.0525 24.0934 43.6258 21.6667 40.6358 21.6667H38.4692V20.5834C38.4692 19.9875 37.9817 19.5 37.3858 19.5H7.05251C6.44584 19.5 5.95834 19.9875 5.95834 20.5834ZM38.4583 23.8334H40.625C42.4125 23.8334 43.875 25.2959 43.875 27.0834C43.875 28.8709 42.4125 30.3334 40.625 30.3334H38.4583V23.8334ZM8.12501 21.6667H36.2917V22.75V31.4167C36.2917 35.6417 34.4392 39.5634 31.2 42.25H13.2167C9.97751 39.5634 8.12501 35.6417 8.12501 31.4167V21.6667Z" fill="#0060AF"/>
<path d="M20.0958 37.0937C21.7317 37.0937 23.6492 36.227 25.2633 34.6129C27.8417 32.0345 28.5133 28.6654 26.7908 26.9537C25.0683 25.242 21.71 25.9137 19.1317 28.4812C16.5533 31.0595 15.8817 34.4287 17.6042 36.1404C18.2542 36.7904 19.1208 37.0937 20.0958 37.0937ZM25.5667 29.7162C25.4692 30.6804 24.8625 31.9479 23.7358 33.0745C22.6092 34.2012 21.3308 34.8079 20.3775 34.9054L25.5667 29.7162ZM20.6808 30.0195C21.8075 28.8929 23.0642 28.3187 24.0175 28.2104L18.85 33.3779C18.9475 32.4245 19.5542 31.1462 20.6808 30.0195Z" fill="#0060AF"/>
</svg>
