<svg width="35" height="35" viewBox="0 0 35 35" fill="none" xmlns="http://www.w3.org/2000/svg">
<rect width="35" height="35" rx="17.5" fill="#1877F2"/>
<path d="M29.993 6H6.00703C6.00315 6 6 6.00315 6 6.00703V29.993C6 29.9969 6.00315 30 6.00703 30H29.993C29.9969 30 30 29.9969 30 29.993V6.00703C30 6.00315 29.9969 6 29.993 6Z" fill="#1877F2"/>
<path d="M22.6688 21.4688L23.2031 18H19.875V15.75C19.875 14.8031 20.3391 13.875 21.8297 13.875H23.3438V10.9219C23.3438 10.9219 21.9703 10.6875 20.6578 10.6875C17.9156 10.6875 16.125 12.3469 16.125 15.3563V18H13.0781V21.4688H16.125V30H19.875V21.4688H22.6688Z" fill="white"/>
</svg>
