<svg width="45" height="44" viewBox="0 0 45 44" fill="none" xmlns="http://www.w3.org/2000/svg">
<circle cx="24.1666" cy="20.9993" r="20.5833" fill="#0060AF" fill-opacity="0.1"/>
<path d="M23.2167 9.06311C22.0699 9.10508 21.1338 10.2244 21.4202 11.4107L23.4975 20.0141C22.902 19.8871 22.2445 19.812 21.5002 19.812C21.3324 19.812 21.1808 19.8228 21.0239 19.8303L19.0936 16.6731C18.7299 16.078 18.0993 15.7808 17.469 15.7808C16.8386 15.7808 16.208 16.078 15.8444 16.6731L14.3261 19.1585L13.2343 15.0826C12.9677 14.0878 11.9194 13.5889 11.0127 13.8215C10.7104 13.899 10.4239 14.0583 10.1873 14.307L3.19842 21.656C2.23703 22.6665 2.70046 24.3991 4.03826 24.7936L7.87662 25.9248C7.39123 26.1571 6.93673 26.444 6.54731 26.8276C5.95341 27.4126 5.54823 28.2192 5.42138 29.2186H4.70355C3.59832 29.2186 2.68793 30.129 2.68793 31.2342C2.68793 33.8237 4.80158 35.9373 7.39105 35.9373H35.6098C38.1993 35.9373 40.3129 33.8237 40.3129 31.2342C40.3129 30.129 39.4025 29.2186 38.2973 29.2186H37.5664C37.442 28.5151 37.1266 27.907 36.6924 27.4234C36.2048 26.8803 35.5871 26.4806 34.9221 26.14L35.5573 23.5049C35.8436 22.3186 34.9086 21.1993 33.7621 21.1573C33.5983 21.1514 33.4303 21.1676 33.2608 21.2085L27.9606 22.488C27.6878 22.2637 27.4064 22.0431 27.126 21.8227L34.4286 14.5201C35.3996 13.549 34.9118 11.8162 33.5769 11.494L23.7178 9.11488C23.5484 9.07397 23.3804 9.05771 23.2166 9.06371L23.2167 9.06311ZM23.2429 10.4016C23.2938 10.4014 23.3473 10.4069 23.4017 10.42L33.2608 12.8004C33.6421 12.8925 33.756 13.292 33.4786 13.5694L25.877 21.171C25.5996 21.4484 25.1988 21.3358 25.1067 20.9545L22.7263 11.0954C22.6344 10.7148 22.8872 10.403 23.2433 10.4012L23.2429 10.4016ZM11.6121 15.0824H11.6134C11.7602 15.1203 11.8855 15.2412 11.9362 15.4302L14.7182 25.814C14.8197 26.193 14.5223 26.484 14.146 26.373L4.41929 23.5045C3.99011 23.3779 3.86287 22.9048 4.17127 22.5806L11.1615 15.233C11.2963 15.0913 11.4646 15.0452 11.6116 15.0821L11.6121 15.0824ZM17.4687 17.0876C17.6492 17.0876 17.8297 17.1827 17.9463 17.3736L19.5696 20.0296C18.4613 20.3012 17.6993 20.8015 17.1143 21.3852C16.5068 21.9915 16.0477 22.6107 15.4071 23.1935L14.8061 20.9496L16.991 17.3736C17.1077 17.1827 17.2882 17.0876 17.4687 17.0876H17.4687ZM21.4999 21.1556C22.4678 21.1556 23.2217 21.2818 23.8698 21.4889C24.1925 22.3266 25.1043 22.7539 25.9327 22.5912C26.0601 22.6863 26.1871 22.7817 26.3145 22.8838L23.4014 23.5872C22.0665 23.9094 21.5788 25.6435 22.5497 26.6146L25.1532 29.2181H6.82782C6.9365 28.6123 7.13921 28.1299 7.49051 27.7838C7.96897 27.3125 8.69048 26.9771 9.55599 26.7209C9.72949 26.6695 9.91278 26.6243 10.0953 26.5792L13.7657 27.6617C15.0829 28.0501 16.3717 26.7928 16.0162 25.4663L15.7918 24.6305C16.8699 23.8148 17.4602 22.9386 18.0634 22.3366C18.7811 21.6204 19.4888 21.1556 21.5002 21.1556H21.4999ZM33.7341 22.4954H33.7354C34.0908 22.498 34.3429 22.8095 34.2511 23.1895L32.7958 29.2181H27.0547L23.4998 25.6645C23.2224 25.387 23.335 24.9862 23.7164 24.8942L33.5768 22.5137C33.6307 22.5007 33.6838 22.4952 33.7343 22.4953L33.7341 22.4954ZM34.5962 27.4898C35.0437 27.7443 35.4208 28.0184 35.692 28.3205C35.9284 28.5838 36.0708 28.8831 36.1657 29.218H34.179L34.5963 27.4897L34.5962 27.4898Z" fill="#0060AF"/>
</svg>
