<svg width="42" height="42" viewBox="0 0 42 42" fill="none" xmlns="http://www.w3.org/2000/svg">
<path d="M8.90399 25.904H11.2325C12.1236 25.904 12.9782 25.55 13.6083 24.9199C14.2385 24.2897 14.5925 23.4351 14.5925 22.544V19.0916C14.5925 18.2005 14.2385 17.3458 13.6083 16.7157C12.9782 16.0856 12.1236 15.7316 11.2325 15.7316H8.90399C8.01286 15.7316 7.15823 16.0856 6.52811 16.7157C5.89798 17.3458 5.54399 18.2005 5.54399 19.0916V22.544C5.54399 23.4351 5.89798 24.2897 6.52811 24.9199C7.15823 25.55 8.01286 25.904 8.90399 25.904ZM7.22399 19.0916C7.22399 18.646 7.40098 18.2187 7.71605 17.9036C8.03111 17.5886 8.45842 17.4116 8.90399 17.4116H11.2325C11.678 17.4116 12.1053 17.5886 12.4204 17.9036C12.7355 18.2187 12.9125 18.646 12.9125 19.0916V22.544C12.9125 22.9896 12.7355 23.4169 12.4204 23.7319C12.1053 24.047 11.678 24.224 11.2325 24.224H8.90399C8.45842 24.224 8.03111 24.047 7.71605 23.7319C7.40098 23.4169 7.22399 22.9896 7.22399 22.544V19.0916ZM15.6408 30.0519C15.4626 30.1856 15.2385 30.243 15.018 30.2115C14.7974 30.18 14.5985 30.0621 14.4648 29.8839C14.1724 29.4917 13.7921 29.1736 13.3544 28.9551C12.9168 28.7365 12.434 28.6237 11.9448 28.6256H8.19167C7.35591 28.6269 6.55478 28.9596 5.96397 29.5508C5.37316 30.1419 5.04087 30.9432 5.03999 31.7789V33.3313C6.65257 33.8936 8.35959 34.135 10.0649 34.0419C11.1326 34.066 12.2004 33.9996 13.2569 33.8437C13.4765 33.8062 13.7021 33.8576 13.8839 33.9865C14.0656 34.1153 14.1888 34.3111 14.2262 34.5308C14.2637 34.7505 14.2123 34.976 14.0834 35.1578C13.9546 35.3396 13.7588 35.4627 13.5391 35.5002C12.3906 35.6728 11.2294 35.747 10.0682 35.7219C7.93376 35.8542 5.79822 35.4806 3.83543 34.6316C3.69311 34.563 3.57301 34.4557 3.48891 34.322C3.40482 34.1883 3.36013 34.0336 3.35999 33.8756V31.7789C3.36132 30.4979 3.8708 29.2697 4.77663 28.3639C5.68245 27.4581 6.91063 26.9486 8.19167 26.9473H11.9381C12.6882 26.9437 13.4286 27.1164 14.0998 27.4514C14.7709 27.7864 15.354 28.2743 15.8021 28.8759C15.9359 29.0539 15.9936 29.2778 15.9624 29.4983C15.9312 29.7189 15.8137 29.918 15.6357 30.0519H15.6408ZM38.64 31.7789V33.8756C38.6401 34.0332 38.596 34.1877 38.5125 34.3214C38.429 34.4551 38.3096 34.5626 38.1679 34.6316C36.2051 35.4806 34.0696 35.8542 31.9351 35.7219C30.7739 35.747 29.6128 35.6728 28.4642 35.5002C28.3554 35.4816 28.2514 35.4419 28.158 35.3831C28.0646 35.3244 27.9837 35.2478 27.9198 35.1578C27.856 35.0678 27.8106 34.9661 27.7861 34.8585C27.7616 34.7509 27.7585 34.6396 27.7771 34.5308C27.8173 34.3125 27.9411 34.1186 28.1222 33.9903C28.3032 33.862 28.5272 33.8094 28.7465 33.8437C29.803 33.9996 30.8708 34.066 31.9385 34.0419C33.6426 34.1345 35.3485 33.8931 36.96 33.3313V31.7789C36.9587 30.9435 36.6262 30.1426 36.0354 29.5518C35.4446 28.9611 34.6438 28.6286 33.8083 28.6273H30.0619C29.5727 28.6254 29.0899 28.7382 28.6523 28.9567C28.2146 29.1753 27.8343 29.4934 27.5419 29.8856C27.4757 29.9738 27.3928 30.0482 27.2979 30.1044C27.203 30.1606 27.0979 30.1975 26.9887 30.2131C26.8795 30.2287 26.7683 30.2227 26.6614 30.1953C26.5546 30.1679 26.4542 30.1198 26.3659 30.0536C26.2777 29.9874 26.2033 29.9045 26.1471 29.8096C26.0909 29.7146 26.0539 29.6096 26.0383 29.5004C26.0227 29.3912 26.0288 29.28 26.0562 29.1731C26.0836 29.0663 26.1317 28.9658 26.1979 28.8776C26.646 28.276 27.2291 27.7881 27.9002 27.4531C28.5714 27.1181 29.3118 26.9454 30.0619 26.9489H33.8083C35.089 26.9503 36.317 27.4595 37.2228 28.365C38.1285 29.2705 38.6382 30.4982 38.64 31.7789ZM20.1801 20.7161C19.4227 20.7161 18.6963 21.017 18.1606 21.5527C17.625 22.0883 17.3241 22.8147 17.3241 23.5722V26.0737C17.3241 26.8311 17.625 27.5576 18.1606 28.0932C18.6963 28.6288 19.4227 28.9297 20.1801 28.9297H21.8198C22.5773 28.9297 23.3037 28.6288 23.8393 28.0932C24.3749 27.5576 24.6758 26.8311 24.6758 26.0737V23.5722C24.6758 22.8147 24.3749 22.0883 23.8393 21.5527C23.3037 21.017 22.5773 20.7161 21.8198 20.7161H20.1801ZM22.9958 23.5722V26.0737C22.9958 26.3856 22.8719 26.6847 22.6514 26.9052C22.4308 27.1258 22.1317 27.2497 21.8198 27.2497H20.1801C19.8682 27.2497 19.5691 27.1258 19.3486 26.9052C19.128 26.6847 19.0041 26.3856 19.0041 26.0737V23.5722C19.0041 23.2603 19.128 22.9611 19.3486 22.7406C19.5691 22.52 19.8682 22.3961 20.1801 22.3961H21.8198C22.1317 22.3961 22.4308 22.52 22.6514 22.7406C22.8719 22.9611 22.9958 23.2603 22.9958 23.5722ZM22.4397 29.8923H19.5602C18.5229 29.8928 17.5282 30.3049 16.7946 31.0382C16.061 31.7715 15.6484 32.7661 15.6475 33.8034V35.4161C15.6475 35.5739 15.6919 35.7285 15.7757 35.8622C15.8595 35.9959 15.9793 36.1034 16.1213 36.1721C17.6551 36.8375 19.3245 37.1311 20.9933 37.0289C22.6621 37.1311 24.3314 36.8375 25.8653 36.1721C26.0073 36.1034 26.127 35.9959 26.2108 35.8622C26.2946 35.7285 26.339 35.5739 26.339 35.4161V33.8034C26.3381 32.7684 25.9274 31.7759 25.1967 31.043C24.466 30.31 23.4747 29.8963 22.4397 29.8923ZM24.6725 34.8651C23.4891 35.2534 22.2436 35.4175 21 35.3489C19.7564 35.4175 18.5109 35.2534 17.3275 34.8651V33.8034C17.3284 33.2116 17.564 32.6444 17.9825 32.2262C18.4011 31.8079 18.9685 31.5728 19.5602 31.5723H22.4397C23.0315 31.5728 23.5989 31.8079 24.0174 32.2262C24.436 32.6444 24.6716 33.2116 24.6725 33.8034V34.8651ZM27.4075 22.544C27.4075 23.4351 27.7615 24.2897 28.3916 24.9199C29.0217 25.55 29.8764 25.904 30.7675 25.904H33.096C33.9871 25.904 34.8417 25.55 35.4719 24.9199C36.102 24.2897 36.456 23.4351 36.456 22.544V19.0916C36.456 18.2005 36.102 17.3458 35.4719 16.7157C34.8417 16.0856 33.9871 15.7316 33.096 15.7316H30.7675C29.8764 15.7316 29.0217 16.0856 28.3916 16.7157C27.7615 17.3458 27.4075 18.2005 27.4075 19.0916V22.544ZM29.0875 19.0916C29.0875 18.646 29.2645 18.2187 29.5796 17.9036C29.8946 17.5886 30.3219 17.4116 30.7675 17.4116H33.096C33.5415 17.4116 33.9689 17.5886 34.2839 17.9036C34.599 18.2187 34.776 18.646 34.776 19.0916V22.544C34.776 22.9896 34.599 23.4169 34.2839 23.7319C33.9689 24.047 33.5415 24.224 33.096 24.224H30.7675C30.3219 24.224 29.8946 24.047 29.5796 23.7319C29.2645 23.4169 29.0875 22.9896 29.0875 22.544V19.0916ZM19.2696 16.0878C19.7922 16.4017 20.3903 16.5676 21 16.5676C21.6096 16.5676 22.2078 16.4017 22.7304 16.0878C27.0631 13.4938 27.7099 10.6866 27.7099 9.24511C27.7465 8.71579 27.6776 8.18446 27.5071 7.68201C27.3366 7.17957 27.0679 6.71604 26.7166 6.31836C26.3654 5.92068 25.9386 5.59679 25.461 5.36552C24.9835 5.13425 24.4647 5.00021 23.9349 4.97119C22.8647 4.97173 21.8277 5.34274 21 6.02119C20.1723 5.34274 19.1353 4.97173 18.065 4.97119C17.5357 5.00023 17.0174 5.13411 16.5402 5.36506C16.063 5.59602 15.6364 5.91945 15.2853 6.31658C14.9341 6.71372 14.6653 7.17665 14.4944 7.6785C14.3236 8.18036 14.2541 8.71115 14.2901 9.24007C14.2901 10.6866 14.9369 13.4938 19.2696 16.0878ZM18.065 6.65119C18.4959 6.65252 18.9214 6.74705 19.3123 6.92829C19.7032 7.10953 20.0503 7.37319 20.3297 7.70119C20.4113 7.80041 20.5139 7.88032 20.6301 7.93518C20.7463 7.99005 20.8732 8.0185 21.0017 8.0185C21.1302 8.0185 21.257 7.99005 21.3732 7.93518C21.4894 7.88032 21.592 7.80041 21.6737 7.70119C21.9548 7.37641 22.3018 7.11523 22.6917 6.93505C23.0816 6.75487 23.5054 6.65982 23.9349 6.65623C24.2422 6.68831 24.5401 6.7806 24.8116 6.92782C25.0832 7.07503 25.3231 7.2743 25.5176 7.51424C25.7121 7.75417 25.8575 8.03008 25.9454 8.3262C26.0333 8.62232 26.062 8.93285 26.0299 9.24007C26.0299 11.0881 24.5179 13.057 21.8685 14.6429C21.6051 14.7972 21.3053 14.8786 21 14.8786C20.6947 14.8786 20.3949 14.7972 20.1314 14.6429C17.4871 13.0621 15.9701 11.0881 15.9701 9.24007C15.9372 8.93246 15.9654 8.62139 16.053 8.32469C16.1406 8.02799 16.2858 7.75148 16.4804 7.51099C16.675 7.27051 16.9152 7.07078 17.1871 6.92324C17.459 6.7757 17.7573 6.68325 18.065 6.65119Z" fill="#0060AF"/>
</svg>
