<svg width="46" height="42" viewBox="0 0 46 42" fill="none" xmlns="http://www.w3.org/2000/svg">
<circle cx="25.1666" cy="20.9993" r="20.5833" fill="#0060AF" fill-opacity="0.1"/>
<path d="M25.4137 14.5359C23.1637 15.1886 21.1482 16.473 19.6064 18.2369L19.4265 18.4427L19.5026 18.7052L22.3351 28.4733C21.6273 28.6232 20.9216 28.7835 20.2185 28.9541L17.4167 19.2959L17.3401 19.0321L17.0764 18.9552C14.4944 18.2024 11.7369 18.3159 9.22545 19.2782C7.0707 20.1039 5.19877 21.5154 3.81501 23.3431C2.33593 16.1594 6.18448 8.93844 12.9096 6.12949L13.3214 5.9575L13.1971 5.52891L12.7101 3.84864C12.6416 3.5776 12.6806 3.29048 12.8189 3.04738C12.9584 2.80241 13.1879 2.62144 13.4586 2.5429C13.7293 2.46436 14.02 2.49444 14.2689 2.62675C14.5159 2.75805 14.7025 2.97977 14.7897 3.2454L15.2657 4.883L15.3938 5.32374L15.8439 5.23374C23.1705 3.76871 30.5209 7.83099 33.1657 14.8295C30.6903 13.9029 27.9714 13.7936 25.4137 14.5359ZM25.4137 14.5359L25.553 15.0161M25.4137 14.5359L25.553 15.0161M25.553 15.0161C28.1442 14.2641 30.9077 14.423 33.3866 15.4542L22.8261 28.3711L19.9828 18.5659C21.4617 16.8741 23.3949 15.6421 25.553 15.0161ZM37.3333 29.3736V36.2885H8.75609C9.10098 36.0105 9.59809 35.682 10.2454 35.32C11.6712 34.5225 13.7685 33.5941 16.4185 32.7108C21.6139 30.979 28.896 29.4327 37.3333 29.3736Z" stroke="#0060AF"/>
</svg>
