<svg width="42" height="42" viewBox="0 0 42 42" fill="none" xmlns="http://www.w3.org/2000/svg">
<circle cx="21.1666" cy="20.9993" r="20.5833" fill="#0060AF" fill-opacity="0.1"/>
<path d="M11.6563 32.3515V35.9062H12.7501V32.078C12.7501 31.9931 12.7303 31.9094 12.6923 31.8335C12.6544 31.7575 12.5992 31.6915 12.5313 31.6406L6.47302 27.0971L6.8192 26.7509L11.9215 29.8134C12.0067 29.8642 12.104 29.8908 12.2032 29.8905H17.6719C17.7712 29.8905 17.8685 29.8635 17.9536 29.8123L23.0559 26.7498L23.4021 27.096L17.3438 31.6406C17.2759 31.6915 17.2208 31.7575 17.1828 31.8335C17.1448 31.9094 17.1251 31.9931 17.1251 32.078V35.9062H18.2188V32.3515L21.5001 29.8905L24.7813 32.3515V35.9062H25.8751V32.078C25.8751 31.9931 25.8553 31.9094 25.8173 31.8335C25.7794 31.7575 25.7242 31.6915 25.6563 31.6406L22.4111 29.207L23.133 28.6655L25.0471 29.814C25.1321 29.8645 25.2293 29.8909 25.3282 29.8905H30.7969C30.8962 29.8905 30.9935 29.8635 31.0786 29.8123L36.1809 26.7498L36.5271 27.096L30.4688 31.6406C30.4009 31.6915 30.3458 31.7575 30.3078 31.8335C30.2698 31.9094 30.2501 31.9931 30.2501 32.078V35.9062H31.3438V32.3515L37.6876 27.5937C37.7502 27.5467 37.8021 27.4867 37.8396 27.4179C37.877 27.3491 37.8993 27.2731 37.9049 27.195C37.9104 27.1168 37.8991 27.0384 37.8717 26.965C37.8443 26.8916 37.8015 26.8249 37.7461 26.7695L36.6523 25.6758C36.566 25.5895 36.4534 25.5346 36.3323 25.5197C36.2112 25.5049 36.0886 25.5309 35.984 25.5938L30.6454 28.7968H29.5905C29.9911 28.4795 30.2829 28.0455 30.4256 27.5548C30.5683 27.0642 30.5547 26.5413 30.3867 26.0587C30.2188 25.5762 29.9048 25.1578 29.4883 24.8618C29.0718 24.5658 28.5735 24.4067 28.0626 24.4067C27.5516 24.4067 27.0533 24.5658 26.6368 24.8618C26.2203 25.1578 25.9063 25.5762 25.7384 26.0587C25.5704 26.5413 25.5568 27.0642 25.6995 27.5548C25.8422 28.0455 26.134 28.4795 26.5346 28.7968H25.4791L24.078 27.9568L24.5626 27.5937C24.6252 27.5467 24.6771 27.4867 24.7146 27.4179C24.752 27.3491 24.7743 27.2731 24.7799 27.195C24.7854 27.1168 24.7741 27.0384 24.7467 26.965C24.7193 26.8916 24.6765 26.8249 24.6211 26.7695L23.5273 25.6758C23.441 25.5895 23.3284 25.5346 23.2073 25.5197C23.0862 25.5049 22.9636 25.5309 22.859 25.5938L21.5001 26.4091L20.1411 25.5938C20.0365 25.5309 19.9139 25.5049 19.7928 25.5197C19.6717 25.5346 19.5591 25.5895 19.4728 25.6758L18.379 26.7695C18.3236 26.8249 18.2808 26.8916 18.2534 26.965C18.226 27.0384 18.2147 27.1168 18.2202 27.195C18.2258 27.2731 18.2481 27.3491 18.2856 27.4179C18.3231 27.4867 18.3749 27.5467 18.4376 27.5937L18.921 27.9579L17.5204 28.7968H16.4655C16.8661 28.4795 17.1579 28.0455 17.3006 27.5548C17.4433 27.0642 17.4297 26.5413 17.2617 26.0587C17.0938 25.5762 16.7798 25.1578 16.3633 24.8618C15.9468 24.5658 15.4485 24.4067 14.9376 24.4067C14.4266 24.4067 13.9283 24.5658 13.5118 24.8618C13.0953 25.1578 12.7813 25.5762 12.6134 26.0587C12.4454 26.5413 12.4318 27.0642 12.5745 27.5548C12.7172 28.0455 13.009 28.4795 13.4096 28.7968H12.3547L7.01607 25.5938C6.91149 25.5309 6.7889 25.5049 6.66781 25.5197C6.54672 25.5346 6.43407 25.5895 6.34779 25.6758L5.25404 26.7695C5.19864 26.8249 5.1558 26.8916 5.1284 26.965C5.101 27.0384 5.0897 27.1168 5.09525 27.195C5.10079 27.2731 5.12307 27.3491 5.16056 27.4179C5.19805 27.4867 5.24989 27.5467 5.31256 27.5937L11.6563 32.3515ZM28.0626 25.5156C28.333 25.5156 28.5973 25.5957 28.8221 25.746C29.047 25.8962 29.2222 26.1097 29.3257 26.3595C29.4292 26.6094 29.4562 26.8843 29.4035 27.1495C29.3507 27.4147 29.2205 27.6583 29.0293 27.8495C28.8381 28.0407 28.5945 28.1709 28.3293 28.2237C28.0641 28.2764 27.7892 28.2493 27.5394 28.1459C27.2895 28.0424 27.076 27.8671 26.9258 27.6423C26.7756 27.4175 26.6954 27.1531 26.6954 26.8827C26.6954 26.5201 26.8394 26.1724 27.0958 25.916C27.3522 25.6596 27.7 25.5156 28.0626 25.5156ZM19.9442 26.7509L20.4364 27.0468L19.9311 27.3498L19.5969 27.0982L19.9442 26.7509ZM14.9376 25.5156C15.208 25.5156 15.4723 25.5957 15.6971 25.746C15.922 25.8962 16.0972 26.1097 16.2007 26.3595C16.3042 26.6094 16.3312 26.8843 16.2785 27.1495C16.2257 27.4147 16.0955 27.6583 15.9043 27.8495C15.7131 28.0407 15.4695 28.1709 15.2043 28.2237C14.9391 28.2764 14.6642 28.2493 14.4144 28.1459C14.1645 28.0424 13.951 27.8671 13.8008 27.6423C13.6506 27.4175 13.5704 27.1531 13.5704 26.8827C13.5704 26.5201 13.7144 26.1724 13.9708 25.916C14.2272 25.6596 14.575 25.5156 14.9376 25.5156Z" fill="#0060AF"/>
<path d="M22.0469 21.6875H20.9531V22.7812H22.0469V21.6875Z" fill="#0060AF"/>
<path d="M22.0469 23.875H20.9531V24.9688H22.0469V23.875Z" fill="#0060AF"/>
<path d="M21.5 20.5938C23.2306 20.5938 24.9223 20.0806 26.3612 19.1191C27.8002 18.1577 28.9217 16.7911 29.5839 15.1922C30.2462 13.5934 30.4195 11.834 30.0819 10.1367C29.7443 8.43938 28.9109 6.88028 27.6872 5.65657C26.4635 4.43286 24.9044 3.5995 23.207 3.26188C21.5097 2.92426 19.7504 3.09754 18.1515 3.75981C16.5527 4.42207 15.1861 5.54358 14.2246 6.98251C13.2632 8.42144 12.75 10.1132 12.75 11.8438C12.7527 14.1636 13.6755 16.3876 15.3159 18.0279C16.9562 19.6682 19.1802 20.591 21.5 20.5938ZM21.5 4.1875C23.0143 4.1875 24.4945 4.63654 25.7536 5.47781C27.0126 6.31909 27.994 7.51484 28.5735 8.91383C29.1529 10.3128 29.3046 11.8522 29.0091 13.3374C28.7137 14.8226 27.9845 16.1868 26.9138 17.2575C25.843 18.3283 24.4788 19.0575 22.9937 19.3529C21.5085 19.6483 19.9691 19.4967 18.5701 18.9172C17.1711 18.3377 15.9753 17.3564 15.1341 16.0973C14.2928 14.8383 13.8438 13.358 13.8438 11.8438C13.8459 9.81386 14.6533 7.86772 16.0886 6.43237C17.524 4.99701 19.4701 4.18968 21.5 4.1875Z" fill="#0060AF"/>
<path d="M21.1014 17.4143C21.1525 17.4687 21.2143 17.5121 21.2829 17.5418C21.3514 17.5715 21.4253 17.5868 21.5001 17.5868C21.5748 17.5868 21.6487 17.5715 21.7173 17.5418C21.7858 17.5121 21.8476 17.4687 21.8987 17.4143L26.1343 12.9146C26.6684 12.3317 26.9648 11.5697 26.9648 10.779C26.9648 9.98837 26.6684 9.22641 26.1343 8.64348C25.8725 8.35933 25.5546 8.13254 25.2007 7.97741C24.8469 7.82228 24.4647 7.74219 24.0783 7.74219C23.6919 7.74219 23.3097 7.82228 22.9559 7.97741C22.602 8.13254 22.2841 8.35933 22.0223 8.64348L21.5001 9.19856L20.9778 8.64348C20.716 8.35933 20.3981 8.13254 20.0442 7.97741C19.6904 7.82228 19.3082 7.74219 18.9218 7.74219C18.5354 7.74219 18.1533 7.82228 17.7994 7.97741C17.4455 8.13254 17.1276 8.35933 16.8658 8.64348C16.3317 9.22641 16.0353 9.98837 16.0353 10.779C16.0353 11.5697 16.3317 12.3317 16.8658 12.9146L21.1014 17.4143ZM17.6626 9.39325C17.8221 9.21775 18.0165 9.07752 18.2333 8.98156C18.4502 8.8856 18.6847 8.83603 18.9218 8.83603C19.1589 8.83603 19.3934 8.8856 19.6103 8.98156C19.8271 9.07752 20.0215 9.21775 20.181 9.39325L21.1014 10.3716C21.2073 10.4769 21.3507 10.5361 21.5001 10.5361C21.6494 10.5361 21.7928 10.4769 21.8987 10.3716L22.8191 9.39325C22.9817 9.22296 23.1771 9.08741 23.3935 8.99479C23.6099 8.90218 23.8429 8.85443 24.0783 8.85443C24.3137 8.85443 24.5467 8.90218 24.7631 8.99479C24.9795 9.08741 25.1749 9.22296 25.3375 9.39325C25.6841 9.77154 25.8763 10.266 25.8763 10.779C25.8763 11.2921 25.6841 11.7865 25.3375 12.1648L21.5001 16.2412L17.6626 12.1648C17.316 11.7865 17.1238 11.2921 17.1238 10.779C17.1238 10.266 17.316 9.77154 17.6626 9.39325Z" fill="#0060AF"/>
</svg>
