<svg width="45" height="44" viewBox="0 0 45 44" fill="none" xmlns="http://www.w3.org/2000/svg">
<circle cx="24.1666" cy="20.9993" r="20.5833" fill="#0060AF" fill-opacity="0.1"/>
<path d="M21.5 41.3125C11.1531 41.3125 2.6875 32.8469 2.6875 22.5C2.6875 12.1531 11.1531 3.6875 21.5 3.6875C31.8469 3.6875 40.3125 12.1531 40.3125 22.5C40.3125 32.8469 31.8469 41.3125 21.5 41.3125ZM21.5 5.03125C11.825 5.03125 4.03125 12.825 4.03125 22.5C4.03125 32.175 11.825 39.9688 21.5 39.9688C31.175 39.9688 38.9688 32.175 38.9688 22.5C38.9688 12.825 31.175 5.03125 21.5 5.03125Z" fill="#0060AF"/>
<path d="M21.5 34.5938C20.1562 34.5938 18.9469 34.325 17.7375 33.9219C17.3344 33.7875 17.2 33.3844 17.3344 33.1156C17.4687 32.7125 17.8719 32.5781 18.1406 32.7125C20.5594 33.5188 23.1125 33.3844 25.3969 32.5781C25.8 32.4438 26.0688 32.5781 26.2031 32.9812C26.3375 33.3844 26.2031 33.6531 25.8 33.7875C24.4563 34.325 22.9781 34.5938 21.5 34.5938ZM28.2188 32.4438C27.95 32.4438 27.8156 32.3094 27.6812 32.175C27.4125 31.9063 27.5469 31.5031 27.8156 31.2344C30.6375 29.2188 32.25 25.8594 32.25 22.5C32.25 19.9469 31.3094 17.5281 29.6969 15.5125C29.4281 15.2438 29.4281 14.8406 29.8313 14.5719C30.1 14.3031 30.5031 14.3031 30.7719 14.7062C32.6531 16.8562 33.5938 19.6781 33.5938 22.5C33.5938 26.3969 31.7125 30.025 28.6219 32.3094C28.4875 32.3094 28.3531 32.4438 28.2188 32.4438ZM25.3969 12.4219H25.1281C23.3813 11.75 21.5 11.6156 19.6188 11.8844C19.2156 11.8844 18.9469 11.75 18.8125 11.3469C18.8125 10.9437 18.9469 10.675 19.35 10.5406C21.5 10.2719 23.65 10.4062 25.6656 11.0781C26.0688 11.2125 26.2031 11.6156 26.0688 11.8844C25.9344 12.2875 25.6656 12.4219 25.3969 12.4219ZM15.4531 32.8469C15.3187 32.8469 15.1844 32.8469 15.05 32.7125C11.5562 30.5625 9.40625 26.6656 9.40625 22.5C9.40625 19.0063 11.0187 15.6469 13.7062 13.2281C13.975 13.0938 14.3781 13.0937 14.6469 13.3625C14.9156 13.6312 14.9156 14.0344 14.5125 14.3031C12.0938 16.3187 10.75 19.275 10.75 22.5C10.75 26.2625 12.6313 29.6219 15.8563 31.6375C16.125 31.7719 16.2594 32.3094 16.125 32.5781C15.8562 32.7125 15.7219 32.8469 15.4531 32.8469ZM16.7969 19.1406C16.3938 19.1406 16.125 18.8719 16.125 18.4688V11.0781C16.125 10.675 16.3938 10.4062 16.7969 10.4062C17.2 10.4062 17.4688 10.675 17.4688 11.0781V18.4688C17.4688 18.8719 17.2 19.1406 16.7969 19.1406Z" fill="#0060AF"/>
<path d="M16.7969 34.5938C15.7219 34.5938 14.7813 33.6531 14.7813 32.5781V20.7531L13.5719 19.5437C13.4375 19.4094 13.4375 19.275 13.4375 19.0062V10.9438C13.4375 10.675 13.7063 10.4062 14.1094 10.4062C14.5125 10.4062 14.7813 10.675 14.7813 11.0781V18.8719L15.9906 20.0813C16.125 20.2156 16.125 20.35 16.125 20.6188V32.7125C16.125 33.1156 16.3938 33.3844 16.7969 33.3844C17.2 33.3844 17.4688 33.1156 17.4688 32.7125V20.6188C17.4688 20.4844 17.6031 20.2156 17.6031 20.0813L18.8125 18.8719V11.0781C18.8125 10.675 19.0813 10.4062 19.4844 10.4062C19.8875 10.4062 20.1563 10.675 20.1563 11.0781V19.1406C20.1563 19.275 20.0219 19.5437 20.0219 19.6781L18.8125 20.7531V32.5781C18.8125 33.6531 17.8719 34.5938 16.7969 34.5938ZM26.875 34.5938C25.8 34.5938 24.8594 33.6531 24.8594 32.5781V21.6937C24.8594 21.1562 24.725 20.7531 24.4563 20.4844C24.3219 20.35 24.1875 20.0813 24.0531 19.9469C23.1125 18.7375 22.8438 17.5281 22.9781 16.05C23.2469 14.4375 23.65 13.0937 24.4563 12.0187C24.725 11.6156 25.2625 11.2125 25.6656 10.9438C26.4719 10.4063 27.4125 10.4063 28.2188 10.9438C28.6219 11.2125 29.1594 11.6156 29.4281 12.0187C30.2344 13.0937 30.7719 14.4375 30.9063 16.05C31.0406 17.5281 30.7719 18.7375 29.8313 19.9469C29.6969 20.0813 29.5625 20.35 29.4281 20.4844C29.1594 20.8875 29.025 21.2906 29.025 21.6937V32.5781C28.8906 33.6531 27.95 34.5938 26.875 34.5938ZM26.875 11.75C26.7406 11.75 26.4719 11.75 26.3375 11.8844C26.0688 12.1531 25.6656 12.4219 25.5313 12.6906C24.8594 13.6312 24.4563 14.7062 24.3219 16.05C24.1875 17.125 24.4563 18.0656 25.1281 19.0062C25.2625 19.1406 25.3969 19.275 25.5313 19.5437C26.0688 20.0813 26.3375 20.8875 26.3375 21.6937V32.5781C26.3375 32.9813 26.6063 33.25 27.0094 33.25C27.4125 33.25 27.6813 32.9813 27.6813 32.5781V21.6937C27.6813 20.8875 27.95 20.0813 28.4875 19.5437C28.6219 19.4094 28.7563 19.275 28.8906 19.0062C29.5625 18.0656 29.8313 17.125 29.6969 16.05C29.5625 14.7062 29.1594 13.4969 28.4875 12.6906L27.6813 11.8844C27.2781 11.75 27.0094 11.75 26.875 11.75Z" fill="#0060AF"/>
</svg>
