<svg width="46" height="42" viewBox="0 0 46 42" fill="none" xmlns="http://www.w3.org/2000/svg">
<circle cx="25.1666" cy="20.9993" r="20.5833" fill="#0060AF" fill-opacity="0.1"/>
<g clip-path="url(#clip0)">
<path d="M20.5 2C10.8431 2 3.00013 9.8431 3 19.5C2.9999 29.1572 10.8429 37 20.5 37C30.1571 37 38.0001 29.1572 38 19.5C37.9999 9.8431 30.1569 2 20.5 2ZM20.5 3.34878C29.4294 3.34878 36.6537 10.5707 36.6538 19.5C36.6539 28.4296 29.4295 35.6538 20.5 35.6538C11.5705 35.6538 4.34606 28.4296 4.34615 19.5C4.34628 10.5707 11.5706 3.34878 20.5 3.34878ZM24.5279 10.9866C24.358 10.9866 24.188 11.0531 24.0521 11.1891C23.7802 11.461 23.7802 11.8689 24.0521 12.1409L24.5279 12.6167L27.3833 15.4721L27.8591 15.9479C28.1311 16.2199 28.539 16.2199 28.8109 15.9479C29.0828 15.676 29.0828 15.2681 28.8109 14.9962L25.0038 11.1891C24.8679 11.0526 24.6979 10.9866 24.5279 10.9866ZM24.5279 14.5203L15.962 23.0889L16.9138 24.0406L25.4797 15.4721L24.5279 14.5203ZM13.104 22.4079C12.934 22.4079 12.7641 22.477 12.6282 22.613C12.3563 22.8848 12.3563 23.2928 12.6282 23.5648L16.4379 27.3718C16.7098 27.6438 17.1178 27.6438 17.3896 27.3718C17.6616 27.0999 17.6616 26.692 17.3896 26.4201L16.9138 25.9442L16.8954 25.9652L14.5133 23.5858L14.0374 23.1099L14.0558 23.0889L13.5799 22.613C13.444 22.4766 13.274 22.4079 13.104 22.4079Z" fill="#0060AF"/>
</g>
<defs>
<clipPath id="clip0">
<rect width="35" height="35" fill="white" transform="translate(3 2)"/>
</clipPath>
</defs>
</svg>
