<svg width="35" height="35" viewBox="0 0 35 35" fill="none" xmlns="http://www.w3.org/2000/svg">
<rect width="35" height="35" rx="17.5" fill="#0B86CA"/>
<path d="M24.6131 6H11.3869C8.4118 6 6 8.4118 6 11.3869V24.6131C6 27.5882 8.4118 30 11.3869 30H24.6131C27.5882 30 30 27.5882 30 24.6131V11.3869C30 8.4118 27.5882 6 24.6131 6Z" fill="#0B86CA"/>
<path d="M12.6503 15.9757H15.1442V24.0228H12.6503V15.9757ZM13.9222 11.9771C14.2079 11.9771 14.4873 12.0617 14.725 12.2203C14.9627 12.3788 15.1481 12.6043 15.2578 12.8681C15.3675 13.1319 15.3966 13.4223 15.3415 13.7027C15.2863 13.983 15.1494 14.2408 14.9479 14.4434C14.7465 14.646 14.4895 14.7845 14.2095 14.8412C13.9294 14.898 13.6389 14.8705 13.3744 14.7623C13.11 14.6541 12.8835 14.47 12.7235 14.2332C12.5636 13.9964 12.4774 13.7176 12.4757 13.4318C12.4746 13.2412 12.5112 13.0522 12.5834 12.8757C12.6556 12.6993 12.762 12.5389 12.8964 12.4037C13.0309 12.2685 13.1907 12.1612 13.3667 12.0879C13.5428 12.0147 13.7316 11.977 13.9222 11.9771ZM16.7404 15.9757H19.1429V17.073C19.3834 16.6626 19.7308 16.3252 20.148 16.0968C20.5653 15.8684 21.0368 15.7575 21.5121 15.7761C24.006 15.7761 24.5131 17.4388 24.5131 19.6085V24.0228H22.0192V20.1322C22.0192 19.2012 22.0192 17.9958 20.7224 17.9958C19.4255 17.9958 19.226 19.01 19.226 20.0574V24.0394H16.7321L16.7404 15.9757Z" fill="white"/>
</svg>
