<svg width="35" height="35" viewBox="0 0 35 35" fill="none" xmlns="http://www.w3.org/2000/svg">
<rect width="35" height="35" rx="17.5" fill="#0060AF"/>
<path d="M19.9688 13.5H20.5495C22.8704 13.5 24.75 15.3898 24.75 17.7188C24.75 19.9726 22.9897 21.8151 20.7795 21.9316L20.557 21.9375L19.9763 21.9427C19.5103 21.9468 19.1292 21.5724 19.125 21.1064C19.1212 20.6793 19.4355 20.3234 19.8468 20.2639L19.9612 20.2552L20.5495 20.25C21.9364 20.25 23.0625 19.1177 23.0625 17.7188C23.0625 16.3781 22.0283 15.2823 20.7214 15.1933L20.5495 15.1875H19.9688C19.5028 15.1875 19.125 14.8097 19.125 14.3438C19.125 13.9166 19.4424 13.5636 19.8543 13.5077L19.9688 13.5H20.5495H19.9688ZM15.4713 13.5H16.0312C16.4972 13.5 16.875 13.8778 16.875 14.3438C16.875 14.7709 16.5576 15.1239 16.1457 15.1798L16.0312 15.1875H15.4713C14.0719 15.1875 12.9375 16.3219 12.9375 17.7213C12.9375 19.0624 13.9794 20.1602 15.2979 20.2493L15.4713 20.2552H16.0312C16.4972 20.2552 16.875 20.6329 16.875 21.0989C16.875 21.5261 16.5576 21.8791 16.1457 21.935L16.0312 21.9427H15.4713C13.14 21.9427 11.25 20.0527 11.25 17.7213C11.25 15.4652 13.02 13.6224 15.2471 13.5059L15.4713 13.5H16.0312H15.4713ZM15.4688 16.875H20.5312C20.9972 16.875 21.375 17.2528 21.375 17.7188C21.375 18.1459 21.0576 18.4989 20.6457 18.5548L20.5312 18.5625H15.4688C15.0028 18.5625 14.625 18.1847 14.625 17.7188C14.625 17.2916 14.9424 16.9386 15.3543 16.8827L15.4688 16.875H20.5312H15.4688Z" fill="white"/>
</svg>
