<svg width="17" height="17" viewBox="0 0 17 17" fill="none" xmlns="http://www.w3.org/2000/svg">
<path d="M11.6875 6.65818L5.3125 2.98193" stroke="#0060AF" stroke-linecap="round" stroke-linejoin="round"/>
<path d="M14.875 11.3332V5.66652C14.8747 5.41809 14.8092 5.17409 14.6848 4.95901C14.5605 4.74392 14.3818 4.56531 14.1667 4.4411L9.20833 1.60777C8.99297 1.48343 8.74868 1.41797 8.5 1.41797C8.25132 1.41797 8.00703 1.48343 7.79167 1.60777L2.83333 4.4411C2.61819 4.56531 2.43949 4.74392 2.31516 4.95901C2.19083 5.17409 2.12525 5.41809 2.125 5.66652V11.3332C2.12525 11.5816 2.19083 11.8256 2.31516 12.0407C2.43949 12.2558 2.61819 12.4344 2.83333 12.5586L7.79167 15.3919C8.00703 15.5163 8.25132 15.5817 8.5 15.5817C8.74868 15.5817 8.99297 15.5163 9.20833 15.3919L14.1667 12.5586C14.3818 12.4344 14.5605 12.2558 14.6848 12.0407C14.8092 11.8256 14.8747 11.5816 14.875 11.3332Z" stroke="#0060AF" stroke-linecap="round" stroke-linejoin="round"/>
<path d="M2.31624 4.93018L8.49999 8.50726L14.6837 4.93018" stroke="#0060AF" stroke-linecap="round" stroke-linejoin="round"/>
<path d="M8.5 15.64V8.5" stroke="#0060AF" stroke-linecap="round" stroke-linejoin="round"/>
</svg>
