<svg width="35" height="35" viewBox="0 0 35 35" fill="none" xmlns="http://www.w3.org/2000/svg">
<rect width="35" height="35" rx="17.5" fill="#0A93E2"/>
<path d="M24.8815 6H11.1185C8.29163 6 6 8.29163 6 11.1185V24.8815C6 27.7084 8.29163 30 11.1185 30H24.8815C27.7084 30 30 27.7084 30 24.8815V11.1185C30 8.29163 27.7084 6 24.8815 6Z" fill="#0A93E2"/>
<path fill-rule="evenodd" clip-rule="evenodd" d="M25.3001 14.3579C24.7831 14.5871 24.2264 14.7425 23.6434 14.8119C24.2391 14.4545 24.696 13.8894 24.9125 13.216C24.3548 13.546 23.7369 13.7865 23.0802 13.9158C22.5539 13.3548 21.8038 13.0049 20.9738 13.0049C19.38 13.0049 18.0891 14.2972 18.0891 15.8896C18.0891 16.1155 18.1141 16.3363 18.1636 16.5474C15.7662 16.4267 13.6399 15.2782 12.2174 13.5323C11.9685 13.9588 11.8267 14.4545 11.8267 14.983C11.8267 15.9843 12.3361 16.8677 13.1093 17.3847C12.6365 17.3699 12.1922 17.2396 11.8025 17.0231C11.8025 17.0358 11.8025 17.0474 11.8025 17.06C11.8025 18.4572 12.7973 19.6233 14.1168 19.8882C13.8753 19.9544 13.6201 19.9902 13.3573 19.9902C13.1715 19.9902 12.9907 19.9722 12.814 19.9386C13.1819 21.0848 14.2472 21.9188 15.5099 21.9419C14.5224 22.7162 13.2785 23.1763 11.9265 23.1763C11.693 23.1763 11.4631 23.1637 11.2383 23.1365C12.5147 23.9549 14.0308 24.4328 15.66 24.4328C20.9666 24.4328 23.8693 20.0362 23.8693 16.2239C23.8693 16.0988 23.8661 15.9748 23.861 15.8508C24.4249 15.4442 24.9136 14.9358 25.3001 14.3579L25.3001 14.3579Z" fill="white"/>
</svg>
